/* XPM */
static char *magick[] = {
/* columns rows colors chars-per-pixel */
"32 32 90 1",
"  c black",
". c gray8",
"X c #232323",
"o c #34342c",
"O c #323232",
"+ c #393939",
"@ c #4f0f01",
"# c #521001",
"$ c #601701",
"% c #641901",
"& c #6d1e01",
"* c #7b2803",
"= c #762f10",
"- c #7f310c",
"; c #692f32",
": c #434343",
"> c #494949",
", c #555555",
"< c #5b5b5b",
"1 c #646464",
"2 c #6d6d6d",
"3 c #727272",
"4 c #787878",
"5 c #842d02",
"6 c #883b1c",
"7 c #923905",
"8 c #9a3e05",
"9 c #9c4006",
"0 c #93542f",
"q c #955733",
"w c #995f3c",
"e c #9b603e",
"r c #b75706",
"t c #b05109",
"y c #bb5a07",
"u c #ba5a08",
"i c #b25710",
"p c #a65e33",
"a c #bd651e",
"s c #824447",
"d c #905e65",
"f c #a8754f",
"g c #b57349",
"h c #c46309",
"j c #c96609",
"k c #cb6a0f",
"l c #c96910",
"z c #cd711b",
"x c #bc845f",
"c c #af917f",
"v c #ce813c",
"b c #d08137",
"n c #cf884b",
"m c #ce905d",
"M c #d08a4c",
"N c #cb9c7a",
"B c #d39b6b",
"V c #d99f6d",
"C c #dca97b",
"Z c #848484",
"A c #8e8e8e",
"S c #959595",
"D c #9a9a9a",
"F c gray63",
"G c #aeaeae",
"H c #b2b2b2",
"J c #bdbdbd",
"K c #c29d82",
"L c #cfab94",
"P c #d8b99f",
"I c #e0b188",
"U c #e2b995",
"Y c #e5bf9c",
"T c #e6c2a4",
"R c #e1c9b7",
"E c #e4cdbc",
"W c #edd3bf",
"Q c #f1d8ba",
"! c #cbcbcb",
"~ c #d1d1d1",
"^ c #dbdbdb",
"/ c #e5d2c3",
"( c #eadacd",
") c #eedfd4",
"_ c #f7e5d0",
"` c #f2e6de",
"' c #e1e1e1",
"] c gray94",
"[ c #fefefe",
"{ c None",
/* pixels */
"{{{{{{{{{{{{{{{  {{{{{{{{{{{{{{{",
"{{{{{{{{{{{{{{ ,, {{{{{{{{{{{{{{",
"{{{{{{,O {{{{ ,~G, {{{{{{{{{{{{{",
"{{{{{{,O {{{ ,'!JG, {{{{{{{{{{{{",
"{{{{{{,O {{ ,^!HDSS> {{{{{{{{{{{",
"{{{{{{,O { ,^!HSAA44: {{{{{{{{{{",
"{{{{{{,O  ,^!H++++432: {{{{{{{{{",
"{{{{{{,O ,^!2+<1<1+,21: {{{{{{{{",
"{{{{{{, <~G3+<SSSS<+,11: {{{{{{{",
"{{{{{{ ,^H3+1SJJJJS1+,11: {{{{{{",
"{{{{{ ,!G4+<SJ''''JS<+,<,+ {{{{{",
"{{{{ ,^G3+,SJ^]]]]'JS<+,,<O {{{{",
"{{{ ,~G3+<SJ'][[[[]'JS<+,,,O {{{",
"{{ ,~F3+,SJ'][[[[[[]'JS,+,,,O {{",
"{ ,~H3O,AJ'][[[[[[[[]^!A,O,,,O {",
" +JF3X>3H^][[[[[[[[[[]^H3>O>,,O ",
"{ A<. ,S~][[Qfeq=@_[[['!S, .>O {",
"{{  { 3G'[[[fc(EN-@[[['~G4 {  {{",
"{{{{{ 4G'[[Kw`EPmg&K[['!H4 {{{{{",
"{{{{{ 4H'[[0)WUBgi5@[['!G4 {{{{{",
"{{{{{ 4G'[[d(TVbjy7#[['~G4 {{{{{",
"{{{{{ 4G'[[d(Ynzjy8#[['!H4 {{{{{",
"{{{{{ 4H'[[dEInzjy8#[['~G4 {{{{{",
"{{{{{ 4G'[[;ECzljy9#[['!G4 {{{{{",
"{{{{{ 4G'[[sRBzlju8#[['!G4 {{{{{",
"{{{{{ 4H'[[sLnkjhu9#[['!G4 {{{{{",
"{{{{{ 4G'[[;xahhhr8#[['~G4 {{{{{",
"{{{{{ 4G'[[;ptyyyt7#[['!G4 {{{{{",
"{{{{{ 4G'[[;678987*#[['~H4 {{{{{",
"{{{{{ ,ZDHHo#%%%%$#oHHGSZ, {{{{{",
"{{{{{{                     {{{{{",
"{{{{{{{{{{{{{{{{{{{{{{{{{{{{{{{{"
};
